<mxfile host="app.diagrams.net" agent="Mozilla/5.0 (Macintosh; Intel Mac OS X 10_15_7) AppleWebKit/537.36 (KHTML, like Gecko) Chrome/131.0.0.0 Safari/537.36" version="24.7.12">
  <diagram name="Page-1" id="p-rE9BNFkiCVQp6ZTbwx">
    <mxGraphModel dx="1909" dy="1078" grid="1" gridSize="10" guides="1" tooltips="1" connect="1" arrows="1" fold="1" page="1" pageScale="1" pageWidth="850" pageHeight="1100" math="0" shadow="0">
      <root>
        <mxCell id="0" />
        <mxCell id="1" parent="0" />
        <mxCell id="dnLmKBY2rfKVffSuKNXK-2" value="" style="strokeWidth=1;shadow=0;dashed=0;align=center;html=1;shape=mxgraph.mockup.containers.browserWindow;rSize=0;strokeColor=#666666;strokeColor2=#008cff;strokeColor3=#c4c4c4;mainText=,;recursiveResize=0;" vertex="1" parent="1">
          <mxGeometry x="60" y="80" width="840" height="1050" as="geometry" />
        </mxCell>
        <mxCell id="dnLmKBY2rfKVffSuKNXK-3" value="Travel Planner" style="strokeWidth=1;shadow=0;dashed=0;align=center;html=1;shape=mxgraph.mockup.containers.anchor;fontSize=17;fontColor=#666666;align=left;whiteSpace=wrap;" vertex="1" parent="dnLmKBY2rfKVffSuKNXK-2">
          <mxGeometry x="60" y="12" width="230" height="26" as="geometry" />
        </mxCell>
        <mxCell id="dnLmKBY2rfKVffSuKNXK-4" value="https://www.draw.io" style="strokeWidth=1;shadow=0;dashed=0;align=center;html=1;shape=mxgraph.mockup.containers.anchor;rSize=0;fontSize=17;fontColor=#666666;align=left;" vertex="1" parent="dnLmKBY2rfKVffSuKNXK-2">
          <mxGeometry x="130" y="60" width="250" height="26" as="geometry" />
        </mxCell>
        <mxCell id="dnLmKBY2rfKVffSuKNXK-5" value="&lt;font style=&quot;font-size: 23px;&quot;&gt;Teavel Planner&lt;/font&gt;" style="rounded=1;whiteSpace=wrap;html=1;" vertex="1" parent="dnLmKBY2rfKVffSuKNXK-2">
          <mxGeometry x="20" y="150" width="700" height="100" as="geometry" />
        </mxCell>
        <mxCell id="dnLmKBY2rfKVffSuKNXK-14" value="" style="rounded=0;whiteSpace=wrap;html=1;fillColor=#ffe6cc;strokeColor=#d79b00;" vertex="1" parent="dnLmKBY2rfKVffSuKNXK-2">
          <mxGeometry x="20" y="290" width="700" height="270" as="geometry" />
        </mxCell>
        <mxCell id="dnLmKBY2rfKVffSuKNXK-15" value="&lt;font style=&quot;font-size: 18px;&quot;&gt;Add a trip&lt;/font&gt;" style="text;html=1;align=left;verticalAlign=middle;whiteSpace=wrap;rounded=0;" vertex="1" parent="dnLmKBY2rfKVffSuKNXK-2">
          <mxGeometry x="40" y="310" width="200" height="30" as="geometry" />
        </mxCell>
        <mxCell id="dnLmKBY2rfKVffSuKNXK-18" value="City" style="fillColor=none;strokeColor=none;align=left;fontSize=14;fontColor=#212529;" vertex="1" parent="dnLmKBY2rfKVffSuKNXK-2">
          <mxGeometry x="40" y="415" width="200" height="30" as="geometry" />
        </mxCell>
        <mxCell id="dnLmKBY2rfKVffSuKNXK-19" value="col-form-" style="html=1;shadow=0;dashed=0;shape=mxgraph.bootstrap.rrect;rSize=5;fillColor=none;strokeColor=#999999;align=left;spacing=15;fontSize=14;fontColor=#6C767D;" vertex="1" parent="dnLmKBY2rfKVffSuKNXK-2">
          <mxGeometry x="190" y="415" width="230" height="30" as="geometry" />
        </mxCell>
        <mxCell id="dnLmKBY2rfKVffSuKNXK-22" value="Country" style="fillColor=none;strokeColor=none;align=left;fontSize=14;fontColor=#212529;" vertex="1" parent="dnLmKBY2rfKVffSuKNXK-2">
          <mxGeometry x="40" y="370" width="200" height="30" as="geometry" />
        </mxCell>
        <mxCell id="dnLmKBY2rfKVffSuKNXK-23" value="col-form-" style="html=1;shadow=0;dashed=0;shape=mxgraph.bootstrap.rrect;rSize=5;fillColor=none;strokeColor=#999999;align=left;spacing=15;fontSize=14;fontColor=#6C767D;" vertex="1" parent="dnLmKBY2rfKVffSuKNXK-2">
          <mxGeometry x="190" y="370" width="230" height="30" as="geometry" />
        </mxCell>
        <mxCell id="dnLmKBY2rfKVffSuKNXK-24" value="Date" style="fillColor=none;strokeColor=none;align=left;fontSize=14;fontColor=#212529;" vertex="1" parent="dnLmKBY2rfKVffSuKNXK-2">
          <mxGeometry x="40" y="455" width="200" height="30" as="geometry" />
        </mxCell>
        <mxCell id="dnLmKBY2rfKVffSuKNXK-25" value="col-form-" style="html=1;shadow=0;dashed=0;shape=mxgraph.bootstrap.rrect;rSize=5;fillColor=none;strokeColor=#999999;align=left;spacing=15;fontSize=14;fontColor=#6C767D;" vertex="1" parent="dnLmKBY2rfKVffSuKNXK-2">
          <mxGeometry x="190" y="455" width="230" height="30" as="geometry" />
        </mxCell>
        <mxCell id="dnLmKBY2rfKVffSuKNXK-26" style="edgeStyle=orthogonalEdgeStyle;rounded=0;orthogonalLoop=1;jettySize=auto;html=1;exitX=0.5;exitY=1;exitDx=0;exitDy=0;" edge="1" parent="dnLmKBY2rfKVffSuKNXK-2" source="dnLmKBY2rfKVffSuKNXK-14" target="dnLmKBY2rfKVffSuKNXK-14">
          <mxGeometry relative="1" as="geometry" />
        </mxCell>
        <mxCell id="dnLmKBY2rfKVffSuKNXK-27" value="" style="rounded=0;whiteSpace=wrap;html=1;fillColor=#d5e8d4;strokeColor=#82b366;" vertex="1" parent="dnLmKBY2rfKVffSuKNXK-2">
          <mxGeometry x="20" y="590" width="700" height="310" as="geometry" />
        </mxCell>
        <mxCell id="dnLmKBY2rfKVffSuKNXK-28" value="&lt;font style=&quot;font-size: 18px;&quot;&gt;Trip details&lt;/font&gt;" style="text;html=1;align=left;verticalAlign=middle;whiteSpace=wrap;rounded=0;" vertex="1" parent="dnLmKBY2rfKVffSuKNXK-2">
          <mxGeometry x="30" y="610" width="200" height="30" as="geometry" />
        </mxCell>
        <mxCell id="dnLmKBY2rfKVffSuKNXK-35" value="Photo" style="html=1;whiteSpace=wrap;strokeColor=none;fillColor=#0079D6;labelPosition=center;verticalLabelPosition=middle;verticalAlign=top;align=center;fontSize=12;outlineConnect=0;spacingTop=-6;fontColor=#FFFFFF;sketch=0;shape=mxgraph.sitemap.photo;" vertex="1" parent="dnLmKBY2rfKVffSuKNXK-2">
          <mxGeometry x="40" y="680" width="120" height="110" as="geometry" />
        </mxCell>
        <mxCell id="dnLmKBY2rfKVffSuKNXK-40" value="Save trip" style="rounded=1;fillColor=#0057D8;strokeColor=none;html=1;whiteSpace=wrap;fontColor=#ffffff;align=center;verticalAlign=middle;fontStyle=0;fontSize=12;sketch=0;" vertex="1" parent="dnLmKBY2rfKVffSuKNXK-2">
          <mxGeometry x="200" y="690" width="86" height="33" as="geometry" />
        </mxCell>
        <mxCell id="dnLmKBY2rfKVffSuKNXK-41" value="Remove trip" style="rounded=1;fillColor=#FF6666;strokeColor=none;html=1;whiteSpace=wrap;fontColor=#ffffff;align=center;verticalAlign=middle;fontStyle=0;fontSize=12;sketch=0;" vertex="1" parent="dnLmKBY2rfKVffSuKNXK-2">
          <mxGeometry x="310" y="690" width="86" height="33" as="geometry" />
        </mxCell>
        <mxCell id="dnLmKBY2rfKVffSuKNXK-46" value="My trip to: city, country departing: date" style="text;html=1;align=left;verticalAlign=middle;whiteSpace=wrap;rounded=0;fontSize=16;fontStyle=3" vertex="1" parent="dnLmKBY2rfKVffSuKNXK-2">
          <mxGeometry x="200" y="660" width="347" height="30" as="geometry" />
        </mxCell>
        <mxCell id="dnLmKBY2rfKVffSuKNXK-47" value="&lt;h1 style=&quot;margin-top: 0px;&quot;&gt;more info&lt;/h1&gt;&lt;p&gt;city, country: x days left&lt;/p&gt;&lt;p&gt;weather then is:&lt;/p&gt;&lt;p&gt;x high, x low,&amp;nbsp;&lt;/p&gt;&lt;p&gt;weather description&lt;/p&gt;" style="text;html=1;whiteSpace=wrap;overflow=hidden;rounded=0;" vertex="1" parent="dnLmKBY2rfKVffSuKNXK-2">
          <mxGeometry x="200" y="730" width="180" height="160" as="geometry" />
        </mxCell>
      </root>
    </mxGraphModel>
  </diagram>
</mxfile>
